<?xml version="1.0" encoding="UTF-8"?>
<svg id="Layer_1" data-name="Layer 1" xmlns="http://www.w3.org/2000/svg" xmlns:xlink="http://www.w3.org/1999/xlink" viewBox="0 0 1596.24 1771.43">
  <defs>
    <style>
      .cls-1 {
        fill: url(#linear-gradient);
      }
    </style>
    <linearGradient id="linear-gradient" x1="407.14" y1="254.25" x2="1148.38" y2="1538.13" gradientUnits="userSpaceOnUse">
      <stop offset="0" stop-color="#f0535b"/>
      <stop offset=".5" stop-color="#a379b6"/>
      <stop offset="1" stop-color="#33b2e7"/>
    </linearGradient>
  </defs>
  <path class="cls-1" d="m248.01,367.5v1057.37l-110.25-42.28V409.78l110.25-42.28Zm112.37,584.87v515.58l110.25,42.28v-447.6h140.65v501.53l110.25,42.22v-654h-361.16Zm250.91-724.15v501.53h-140.65v-447.6l-110.25,42.28v515.58h361.16V186.01l-110.25,42.22Zm222.63,724.15v654.05l110.25-42.28v-501.53h140.65v447.6l110.31-42.28v-515.58h-361.21Zm250.9-670.23v447.6h-140.65V228.23l-110.25-42.28v654.05h361.21V324.42l-110.31-42.28Zm222.63,1142.73l110.31-42.28V409.78l-112.37-43.08v166.24l2.06,891.94Z"/>
</svg>