<?xml version="1.0" encoding="UTF-8"?>
<svg id="Layer_1" data-name="Layer 1" xmlns="http://www.w3.org/2000/svg" xmlns:xlink="http://www.w3.org/1999/xlink" viewBox="0 0 1277.75 297.9">
  <defs>
    <style>
      .cls-1 {
        fill: url(#linear-gradient);
      }

      .cls-2 {
        fill: #161032;
      }
    </style>
    <linearGradient id="linear-gradient" x1="56.49" y1="14.32" x2="211.95" y2="283.58" gradientUnits="userSpaceOnUse">
      <stop offset="0" stop-color="#f0535b"/>
      <stop offset=".5" stop-color="#a379b6"/>
      <stop offset="1" stop-color="#33b2e7"/>
    </linearGradient>
  </defs>
  <path class="cls-1" d="m23.12,38.08v221.75L0,250.96V46.94l23.12-8.87Zm23.57,122.66v108.13l23.12,8.87v-93.87h29.5v105.18l23.12,8.85v-137.16H46.69ZM99.31,8.87v105.18h-29.5V20.17l-23.12,8.87v108.13h75.74V.01l-23.12,8.85Zm46.69,151.87v137.17l23.12-8.87v-105.18h29.5v93.87l23.13-8.87v-108.13h-75.75ZM198.62,20.17v93.87h-29.5V8.87L146,0v137.17h75.75V29.04l-23.13-8.87Zm46.69,239.65l23.13-8.87V46.94l-23.57-9.03v34.86l.43,187.06Z"/>
  <g>
    <g>
      <path class="cls-2" d="m322.05,91.54h11.29v43.83c3.43-5.2,7.97-9.32,13.61-12.37,5.64-3.04,11.9-4.57,18.76-4.57,11.84,0,21.06,3.54,27.64,10.63,6.58,7.08,9.88,17.05,9.88,29.88v48.81h-11.29v-48.31c0-9.85-2.38-17.4-7.14-22.66-4.76-5.25-11.57-7.89-20.42-7.89-9.3,0-16.8,2.8-22.49,8.38-5.7,5.59-8.55,12.92-8.55,22v48.48h-11.29v-116.21Z"/>
      <path class="cls-2" d="m443.99,203.18c-6.7-3.93-11.93-9.32-15.69-16.19-3.76-6.86-5.64-14.61-5.64-23.24s1.88-16.38,5.64-23.24c3.76-6.86,8.99-12.26,15.69-16.19,6.7-3.93,14.25-5.89,22.66-5.89,7.3,0,13.97,1.47,20,4.4,6.03,2.93,11.04,7.06,15.02,12.37v-15.44h11.29v87.99h-11.29v-15.44c-3.98,5.31-8.99,9.44-15.02,12.37-6.03,2.93-12.7,4.4-20,4.4-8.41,0-15.97-1.96-22.66-5.89Zm-5.48-21.58c2.93,5.26,6.97,9.38,12.12,12.37,5.15,2.99,10.93,4.48,17.35,4.48s12.2-1.49,17.35-4.48c5.15-2.99,9.19-7.11,12.12-12.37,2.93-5.26,4.4-11.21,4.4-17.85s-1.47-12.59-4.4-17.85c-2.93-5.26-6.97-9.38-12.12-12.37-5.15-2.99-10.93-4.48-17.35-4.48s-12.2,1.49-17.35,4.48c-5.15,2.99-9.19,7.11-12.12,12.37-2.93,5.26-4.4,11.21-4.4,17.85s1.47,12.59,4.4,17.85Z"/>
      <path class="cls-2" d="m555.47,203.27c-6.75-3.87-12.04-9.21-15.85-16.02s-5.73-14.58-5.73-23.32,1.88-16.71,5.64-23.57c3.76-6.86,9.05-12.23,15.86-16.1,6.81-3.87,14.53-5.81,23.16-5.81,10.63,0,19.76,2.85,27.39,8.55,7.64,5.7,12.73,13.53,15.27,23.49h-11.29c-2.44-6.75-6.37-12.01-11.79-15.77-5.42-3.76-11.84-5.65-19.26-5.65-6.53,0-12.34,1.47-17.43,4.4-5.09,2.93-9.05,7.06-11.87,12.37s-4.23,11.35-4.23,18.1,1.41,12.59,4.23,17.85c2.82,5.26,6.78,9.35,11.87,12.29,5.09,2.93,10.9,4.4,17.43,4.4,7.53,0,14-1.88,19.42-5.65,5.42-3.76,9.35-9.07,11.79-15.94h11.46c-2.55,9.96-7.67,17.82-15.36,23.58-7.69,5.76-16.91,8.63-27.64,8.63-8.63,0-16.33-1.93-23.08-5.81Z"/>
      <path class="cls-2" d="m640.8,91.54h11.29v116.21h-11.29v-116.21Zm17.27,73.88v-3.32l37.85-42.33h13.45v.66l-38.85,43,41.67,43.66v.66h-14.11l-40.01-42.33Z"/>
      <path class="cls-2" d="m726.13,91.04c1.77-1.77,3.93-2.66,6.47-2.66s4.87.89,6.64,2.66c1.77,1.77,2.66,3.98,2.66,6.64s-.89,4.68-2.66,6.39c-1.77,1.72-3.99,2.57-6.64,2.57s-4.71-.86-6.47-2.57c-1.77-1.72-2.66-3.84-2.66-6.39s.88-4.87,2.66-6.64Zm.83,28.72h11.29v87.99h-11.29v-87.99Z"/>
      <path class="cls-2" d="m766.14,119.76h11.29v15.61c3.32-5.2,7.83-9.32,13.53-12.37,5.7-3.04,12.15-4.57,19.34-4.57,11.62,0,20.69,3.57,27.23,10.71,6.53,7.14,9.79,17.07,9.79,29.8v48.81h-11.29v-48.31c0-9.85-2.38-17.4-7.14-22.66-4.76-5.25-11.57-7.89-20.42-7.89-9.3,0-16.8,2.8-22.5,8.38-5.7,5.59-8.55,12.92-8.55,22v48.48h-11.29v-87.99Z"/>
      <path class="cls-2" d="m885.34,228.42c-7.64-4.48-12.51-10.93-14.61-19.34h11.79c1.88,5.09,5.45,8.97,10.71,11.62,5.26,2.66,11.43,3.98,18.51,3.98,10.07,0,18.1-2.6,24.07-7.8,5.98-5.2,8.96-12.5,8.96-21.91v-7.8c-3.98,5.2-8.99,9.3-15.02,12.29-6.03,2.99-12.53,4.48-19.51,4.48-8.3,0-15.75-1.88-22.33-5.65-6.59-3.76-11.76-8.91-15.52-15.44-3.76-6.53-5.64-13.72-5.64-21.58s1.88-15.22,5.64-21.75c3.76-6.53,8.94-11.68,15.52-15.44,6.58-3.76,14.03-5.65,22.33-5.65,6.97,0,13.47,1.47,19.51,4.4,6.03,2.93,11.04,7,15.02,12.2v-15.27h11.29v75.37c0,8.19-1.86,15.3-5.56,21.33-3.71,6.03-8.86,10.65-15.44,13.86-6.59,3.21-14.09,4.81-22.5,4.81-10.52,0-19.59-2.24-27.23-6.72Zm-2.91-50.8c2.82,4.93,6.78,8.8,11.87,11.62,5.09,2.82,10.84,4.23,17.27,4.23s12.17-1.38,17.27-4.15c5.09-2.77,9.05-6.61,11.87-11.54,2.82-4.92,4.23-10.43,4.23-16.52s-1.41-11.76-4.23-16.68c-2.82-4.92-6.78-8.77-11.87-11.54-5.09-2.77-10.85-4.15-17.27-4.15s-12.18,1.41-17.27,4.23c-5.09,2.82-9.05,6.7-11.87,11.62-2.82,4.93-4.23,10.43-4.23,16.52s1.41,11.43,4.23,16.35Z"/>
    </g>
    <g>
      <path class="cls-2" d="m977.34,91.6h18.43v39.01c3.65-3.98,7.97-7.03,12.95-9.13,4.98-2.1,10.29-3.15,15.94-3.15,11.84,0,20.86,3.43,27.06,10.29,6.2,6.86,9.3,16.71,9.3,29.55v49.64h-18.43v-48.31c0-8.08-1.8-14.16-5.4-18.26-3.6-4.09-8.94-6.14-16.02-6.14-7.75,0-13.92,2.21-18.51,6.64-4.59,4.43-6.89,10.35-6.89,17.76v48.31h-18.43v-116.21Z"/>
      <path class="cls-2" d="m1090.77,198.93c-6.14-6.92-9.21-16.74-9.21-29.47v-49.64h18.43v48.64c0,16.05,7.03,24.07,21.08,24.07,7.64,0,13.72-2.19,18.26-6.56,4.54-4.37,6.81-10.26,6.81-17.68v-48.48h18.43v87.99h-18.1l-.17-10.79c-7.53,8.19-17.32,12.29-29.38,12.29-11.29,0-20-3.46-26.15-10.38Z"/>
      <path class="cls-2" d="m1216.57,206.32c-5.26-2.1-9.82-5.09-13.7-8.96l-.33,10.46h-17.43v-116.21h18.43v38.02c3.87-3.65,8.38-6.47,13.53-8.47,5.15-1.99,10.71-2.99,16.68-2.99,8.41,0,15.96,1.97,22.66,5.89,6.7,3.93,11.92,9.35,15.69,16.27,3.76,6.92,5.64,14.75,5.64,23.49s-1.85,16.43-5.56,23.41c-3.71,6.97-8.91,12.42-15.61,16.35-6.7,3.93-14.31,5.89-22.83,5.89-6.2,0-11.93-1.05-17.18-3.15Zm-5.48-22c5.25,5.26,11.98,7.89,20.17,7.89,5.42,0,10.24-1.19,14.44-3.57,4.2-2.38,7.5-5.73,9.88-10.04,2.38-4.32,3.57-9.24,3.57-14.77s-1.19-10.46-3.57-14.78c-2.38-4.32-5.67-7.66-9.88-10.04-4.21-2.38-9.02-3.57-14.44-3.57-8.19,0-14.92,2.63-20.17,7.89-5.26,5.26-7.89,12.09-7.89,20.5s2.63,15.25,7.89,20.5Z"/>
    </g>
  </g>
</svg>