<svg width="171" height="43" viewBox="0 0 171 43" fill="none" xmlns="http://www.w3.org/2000/svg">
<path d="M25.2434 38.0856V10.9402L8.07484 2.4524L12.1062 0.456787L28.8433 8.73346V36.3011L25.2434 38.0856Z" fill="#EFEFEF"/>
<path d="M-0.000621796 6.44385V34.0114L16.743 42.2881L21.6372 39.8703V13.1471L4.03716 4.44824L-0.000621796 6.44385ZM18.0309 30.9541L10.8183 27.3914V11.7911L18.0309 15.3538V30.9541ZM3.60569 8.22839L7.212 10.0129V29.5981L18.0309 34.9453V38.9365L3.60569 31.8111V8.22839Z" fill="#EFEFEF"/>
<path d="M44.8136 35.9057V4.38525H49.0574V32.2151H64.8801V35.9057H44.8136Z" fill="#EFEFEF"/>
<path d="M68.5055 8.95214V4.38525H72.8395V8.95214H68.5055ZM72.6592 12.9498V35.9057H68.6794V12.9434H72.6592V12.9498Z" fill="#EFEFEF"/>
<path d="M81.366 19.8829C81.102 20.5865 80.9668 21.3476 80.9668 22.1664V35.9054H76.9869V12.943H80.9668V16.058C81.7009 14.9195 82.6476 14.0368 83.7939 13.4228C84.9401 12.8087 86.2217 12.5017 87.6384 12.5017C89.0552 12.5017 90.3947 12.8343 91.483 13.5123C92.5714 14.1903 93.4279 15.1497 94.0461 16.4098C94.8704 15.1817 95.933 14.2223 97.2274 13.5379C98.5218 12.8535 99.9257 12.5081 101.426 12.5081C103.757 12.5081 105.612 13.2629 106.997 14.766C108.381 16.2755 109.07 18.2711 109.07 20.7592V35.9054H105.09V21.8146C105.09 20.03 104.691 18.6485 103.899 17.6634C103.107 16.6784 101.967 16.1923 100.499 16.1923C99.7647 16.1923 99.0498 16.3522 98.3543 16.672C97.6588 16.9918 97.0535 17.4332 96.519 17.9896C96.0489 18.5461 95.6818 19.1729 95.4113 19.8765C95.1473 20.5801 95.0121 21.3412 95.0121 22.16V35.899H91.0322V21.8082C91.0322 20.0236 90.633 18.6421 89.8409 17.657C89.0488 16.6784 87.9089 16.1859 86.4406 16.1859C85.7065 16.1859 84.9917 16.3458 84.2962 16.6656C83.6007 16.9854 82.9953 17.4268 82.4608 17.9832C81.9907 18.5397 81.6236 19.1665 81.3532 19.8701L81.366 19.8829Z" fill="#EFEFEF"/>
<path d="M113.185 8.95214V4.38525H117.519V8.95214H113.185ZM117.339 12.9498V35.9057H113.359V12.9434H117.339V12.9498Z" fill="#EFEFEF"/>
<path d="M121.673 35.9054V12.943H125.653V16.058C126.452 14.9195 127.443 14.0368 128.635 13.4228C129.826 12.8087 131.133 12.5017 132.55 12.5017C134.907 12.5017 136.781 13.2501 138.166 14.7404C139.55 16.2307 140.239 18.2391 140.239 20.7528V35.899H136.26V21.8082C136.26 19.9917 135.847 18.6037 135.023 17.6379C134.199 16.672 133.001 16.1923 131.443 16.1923C129.884 16.1923 128.487 16.7552 127.353 17.8809C126.22 19.0066 125.653 20.4458 125.653 22.2047V35.899H121.673V35.9054Z" fill="#EFEFEF"/>
<path d="M162.16 30.8974C162.16 31.7481 162.186 32.6115 162.25 33.4878C162.308 34.3641 162.398 35.17 162.514 35.8992H158.58C158.554 35.6369 158.522 35.3363 158.489 34.9973C158.457 34.6583 158.431 34.1722 158.399 33.5262C157.665 34.3769 156.673 35.0485 155.437 35.5474C154.2 36.0463 152.861 36.2957 151.412 36.2957C149.203 36.2957 147.374 35.6817 145.932 34.4536C144.489 33.2256 143.768 31.6265 143.768 29.6693C143.768 27.7121 144.47 26.0746 145.867 24.8594C147.265 23.6441 149.499 22.7422 152.565 22.1602L158.309 21.0216V19.6145C158.309 18.412 157.91 17.5101 157.118 16.8961C156.319 16.2821 155.16 15.975 153.627 15.975C152.095 15.975 150.948 16.2885 150.092 16.9217C149.235 17.5549 148.733 18.4823 148.591 19.7104H144.702C144.876 17.427 145.777 15.6552 147.4 14.3952C149.023 13.1351 151.174 12.5083 153.853 12.5083C156.532 12.5083 158.515 13.0776 159.977 14.2225C161.439 15.3674 162.167 16.9728 162.167 19.0516V30.9038L162.16 30.8974ZM156.461 31.6457C157.697 30.6799 158.316 29.4966 158.316 28.0894V24.0918L153.627 25.0576C151.418 25.499 149.886 26.049 149.029 26.727C148.173 27.405 147.748 28.3197 147.748 29.4902C147.748 30.6607 148.128 31.4794 148.894 32.1254C149.66 32.7714 150.678 33.0913 151.94 33.0913C153.705 33.0913 155.212 32.6115 156.448 31.6457H156.461Z" fill="#EFEFEF"/>
<path d="M170.384 4.38525V35.9057H166.404V4.38525H170.384Z" fill="#EFEFEF"/>
</svg>
